<svg width="612" height="392" viewBox="0 0 612 392" fill="none" xmlns="http://www.w3.org/2000/svg">
    <path d="M611.723 0.34668H0.261108V391.954H611.723V0.34668Z" fill="#E6E6E6"/>
    <path d="M594.238 49.464H17.7457V368.786H594.238V49.464Z" fill="white"/>
    <path d="M611.461 0H0V25.9771H611.461V0Z" fill="#6C63FF"/>
    <path d="M19.3042 18.0955C21.9632 18.0955 24.1188 15.9399 24.1188 13.2808C24.1188 10.6218 21.9632 8.46619 19.3042 8.46619C16.6451 8.46619 14.4895 10.6218 14.4895 13.2808C14.4895 15.9399 16.6451 18.0955 19.3042 18.0955Z" fill="white"/>
    <path d="M37.5794 18.0955C40.2385 18.0955 42.3941 15.9399 42.3941 13.2808C42.3941 10.6218 40.2385 8.46619 37.5794 8.46619C34.9204 8.46619 32.7648 10.6218 32.7648 13.2808C32.7648 15.9399 34.9204 18.0955 37.5794 18.0955Z" fill="white"/>
    <path d="M55.8546 18.0955C58.5136 18.0955 60.6693 15.9399 60.6693 13.2808C60.6693 10.6218 58.5136 8.46619 55.8546 8.46619C53.1955 8.46619 51.0399 10.6218 51.0399 13.2808C51.0399 15.9399 53.1955 18.0955 55.8546 18.0955Z" fill="white"/>
    <path d="M431.117 79.3726H243.429C243.029 79.3198 242.661 79.1232 242.395 78.8194C242.128 78.5155 241.981 78.1252 241.981 77.721C241.981 77.3169 242.128 76.9266 242.395 76.6227C242.661 76.3189 243.029 76.1223 243.429 76.0695H431.117C431.517 76.1223 431.885 76.3189 432.151 76.6227C432.418 76.9266 432.565 77.3169 432.565 77.721C432.565 78.1252 432.418 78.5155 432.151 78.8194C431.885 79.1232 431.517 79.3198 431.117 79.3726Z" fill="#CCCCCC"/>
    <path d="M301.068 97.54H181.736C181.335 97.4872 180.968 97.2905 180.701 96.9867C180.435 96.6828 180.288 96.2925 180.288 95.8884C180.288 95.4843 180.435 95.094 180.701 94.7901C180.968 94.4863 181.335 94.2896 181.736 94.2368H301.068C301.469 94.2896 301.836 94.4863 302.103 94.7901C302.369 95.094 302.516 95.4843 302.516 95.8884C302.516 96.2925 302.369 96.6828 302.103 96.9867C301.836 97.2905 301.469 97.4872 301.068 97.54Z" fill="#CCCCCC"/>
    <path d="M431.117 97.8704H311.785C311.384 97.8176 311.016 97.621 310.75 97.3171C310.483 97.0133 310.336 96.623 310.336 96.2188C310.336 95.8147 310.483 95.4244 310.75 95.1205C311.016 94.8167 311.384 94.6201 311.785 94.5673H431.117C431.517 94.6201 431.885 94.8167 432.151 95.1205C432.418 95.4244 432.565 95.8147 432.565 96.2188C432.565 96.623 432.418 97.0133 432.151 97.3171C431.885 97.621 431.517 97.8176 431.117 97.8704H431.117Z" fill="#CCCCCC"/>
    <path d="M301.358 115.707H182.026C181.625 115.655 181.257 115.458 180.991 115.154C180.724 114.85 180.578 114.46 180.578 114.056C180.578 113.652 180.724 113.261 180.991 112.958C181.257 112.654 181.625 112.457 182.026 112.404H301.358C301.758 112.457 302.126 112.654 302.393 112.958C302.659 113.261 302.806 113.652 302.806 114.056C302.806 114.46 302.659 114.85 302.393 115.154C302.126 115.458 301.758 115.655 301.358 115.707Z" fill="#CCCCCC"/>
    <path d="M301.647 133.875H182.315C181.915 133.822 181.547 133.626 181.28 133.322C181.014 133.018 180.867 132.627 180.867 132.223C180.867 131.819 181.014 131.429 181.28 131.125C181.547 130.821 181.915 130.625 182.315 130.572H301.647C302.048 130.625 302.416 130.821 302.682 131.125C302.948 131.429 303.095 131.819 303.095 132.223C303.095 132.627 302.948 133.018 302.682 133.322C302.416 133.626 302.048 133.822 301.647 133.875Z" fill="#CCCCCC"/>
    <path d="M355.81 115.707H321.632C321.232 115.655 320.864 115.458 320.597 115.154C320.331 114.85 320.184 114.46 320.184 114.056C320.184 113.652 320.331 113.261 320.597 112.958C320.864 112.654 321.232 112.457 321.632 112.404H355.81C356.211 112.457 356.578 112.654 356.845 112.958C357.111 113.261 357.258 113.652 357.258 114.056C357.258 114.46 357.111 114.85 356.845 115.154C356.578 115.458 356.211 115.655 355.81 115.707Z" fill="#CCCCCC"/>
    <path d="M355.81 133.545H321.632C321.232 133.492 320.864 133.295 320.597 132.991C320.331 132.687 320.184 132.297 320.184 131.893C320.184 131.489 320.331 131.099 320.597 130.795C320.864 130.491 321.232 130.294 321.632 130.241H355.81C356.211 130.294 356.578 130.491 356.845 130.795C357.111 131.099 357.258 131.489 357.258 131.893C357.258 132.297 357.111 132.687 356.845 132.991C356.578 133.295 356.211 133.492 355.81 133.545Z" fill="#CCCCCC"/>
    <path d="M413.159 133.545H378.981C378.581 133.492 378.213 133.295 377.946 132.991C377.68 132.687 377.533 132.297 377.533 131.893C377.533 131.489 377.68 131.099 377.946 130.795C378.213 130.491 378.581 130.294 378.981 130.241H413.159C413.56 130.294 413.927 130.491 414.194 130.795C414.46 131.099 414.607 131.489 414.607 131.893C414.607 132.297 414.46 132.687 414.194 132.991C413.927 133.295 413.56 133.492 413.159 133.545Z" fill="#CCCCCC"/>
    <path d="M215.045 79.3726H180.867C180.466 79.3198 180.099 79.1232 179.832 78.8194C179.566 78.5155 179.419 78.1252 179.419 77.721C179.419 77.3169 179.566 76.9266 179.832 76.6227C180.099 76.3189 180.466 76.1223 180.867 76.0695H215.045C215.445 76.1223 215.813 76.3189 216.08 76.6227C216.346 76.9266 216.493 77.3169 216.493 77.721C216.493 78.1252 216.346 78.5155 216.08 78.8194C215.813 79.1232 215.445 79.3198 215.045 79.3726Z" fill="#CCCCCC"/>
    <path d="M300.634 287.678H181.302C180.901 287.626 180.533 287.429 180.267 287.125C180 286.821 179.853 286.431 179.853 286.027C179.853 285.623 180 285.232 180.267 284.929C180.533 284.625 180.901 284.428 181.302 284.375H300.634C301.034 284.428 301.402 284.625 301.668 284.929C301.935 285.232 302.082 285.623 302.082 286.027C302.082 286.431 301.935 286.821 301.668 287.125C301.402 287.429 301.034 287.626 300.634 287.678H300.634Z" fill="#CCCCCC"/>
    <path d="M300.054 324.013H180.722C180.322 323.96 179.954 323.764 179.687 323.46C179.421 323.156 179.274 322.766 179.274 322.362C179.274 321.958 179.421 321.567 179.687 321.263C179.954 320.96 180.322 320.763 180.722 320.71H300.054C300.455 320.763 300.823 320.96 301.089 321.263C301.356 321.567 301.502 321.958 301.502 322.362C301.502 322.766 301.356 323.156 301.089 323.46C300.823 323.764 300.455 323.96 300.054 324.013H300.054Z" fill="#CCCCCC"/>
    <path d="M300.344 342.181H181.012C180.611 342.128 180.243 341.931 179.977 341.627C179.711 341.324 179.564 340.933 179.564 340.529C179.564 340.125 179.711 339.735 179.977 339.431C180.243 339.127 180.611 338.93 181.012 338.878H300.344C300.745 338.93 301.112 339.127 301.379 339.431C301.645 339.735 301.792 340.125 301.792 340.529C301.792 340.933 301.645 341.324 301.379 341.627C301.112 341.931 300.745 342.128 300.344 342.181H300.344Z" fill="#CCCCCC"/>
    <path d="M351.32 324.344H317.143C316.742 324.291 316.374 324.094 316.108 323.79C315.842 323.486 315.695 323.096 315.695 322.692C315.695 322.288 315.842 321.898 316.108 321.594C316.374 321.29 316.742 321.093 317.143 321.04H351.32C351.721 321.093 352.089 321.29 352.355 321.594C352.622 321.898 352.769 322.288 352.769 322.692C352.769 323.096 352.622 323.486 352.355 323.79C352.089 324.094 351.721 324.291 351.32 324.344Z" fill="#CCCCCC"/>
    <path d="M351.32 342.181H317.143C316.742 342.128 316.374 341.931 316.108 341.627C315.842 341.324 315.695 340.933 315.695 340.529C315.695 340.125 315.842 339.735 316.108 339.431C316.374 339.127 316.742 338.93 317.143 338.878H351.32C351.721 338.93 352.089 339.127 352.355 339.431C352.622 339.735 352.769 340.125 352.769 340.529C352.769 340.933 352.622 341.324 352.355 341.627C352.089 341.931 351.721 342.128 351.32 342.181Z" fill="#CCCCCC"/>
    <path d="M408.669 324.344H374.492C374.091 324.291 373.723 324.094 373.457 323.79C373.19 323.486 373.044 323.096 373.044 322.692C373.044 322.288 373.19 321.898 373.457 321.594C373.723 321.29 374.091 321.093 374.492 321.04H408.669C409.07 321.093 409.438 321.29 409.704 321.594C409.971 321.898 410.118 322.288 410.118 322.692C410.118 323.096 409.971 323.486 409.704 323.79C409.438 324.094 409.07 324.291 408.669 324.344Z" fill="#CCCCCC"/>
    <path d="M431.261 305.846H243.574C243.174 305.793 242.806 305.596 242.539 305.293C242.273 304.989 242.126 304.598 242.126 304.194C242.126 303.79 242.273 303.4 242.539 303.096C242.806 302.792 243.174 302.595 243.574 302.543H431.261C431.662 302.595 432.03 302.792 432.296 303.096C432.563 303.4 432.71 303.79 432.71 304.194C432.71 304.598 432.563 304.989 432.296 305.293C432.03 305.596 431.662 305.793 431.261 305.846Z" fill="#CCCCCC"/>
    <path d="M215.189 305.846H181.012C180.611 305.793 180.243 305.596 179.977 305.293C179.711 304.989 179.564 304.598 179.564 304.194C179.564 303.79 179.711 303.4 179.977 303.096C180.243 302.792 180.611 302.595 181.012 302.543H215.189C215.59 302.595 215.958 302.792 216.224 303.096C216.491 303.4 216.638 303.79 216.638 304.194C216.638 304.598 216.491 304.989 216.224 305.293C215.958 305.596 215.59 305.793 215.189 305.846Z" fill="#CCCCCC"/>
    <path d="M271.815 163.221L225.472 208.985L271.815 254.748L282.242 244.321L247.195 209.274L282.531 173.938L271.815 163.221Z" fill="#E6E6E6"/>
    <path d="M340.17 163.221L386.512 208.985L340.17 254.748L329.743 244.321L364.789 209.274L329.453 173.938L340.17 163.221Z" fill="#E6E6E6"/>
    <path d="M271.815 163.221L225.472 208.985L271.815 254.748L282.242 244.321L247.195 209.274L282.531 173.938L271.815 163.221Z" fill="#6C63FF"/>
    <path d="M340.17 163.221L386.512 208.985L340.17 254.748L329.743 244.321L364.789 209.274L329.453 173.938L340.17 163.221Z" fill="#6C63FF"/>
</svg>
